<?xml version="1.0" standalone="no"?>
<!DOCTYPE svg PUBLIC "-//W3C//DTD SVG 20010904//EN"
 "http://www.w3.org/TR/2001/REC-SVG-20010904/DTD/svg10.dtd">
<svg version="1.0" xmlns="http://www.w3.org/2000/svg"
 width="278.000000pt" height="140.000000pt" viewBox="0 0 278.000000 140.000000"
 preserveAspectRatio="xMidYMid meet">

<g transform="translate(0.000000,140.000000) scale(0.100000,-0.100000)"
fill="#000000" stroke="none">
<path fill="#33691f" d="M940 1119 c-63 -5 -157 -6 -207 -3 -90 6 -93 5 -93 -15 0 -16 6 -21
28 -21 15 0 41 -12 61 -29 32 -27 33 -32 27 -73 -34 -217 -46 -288 -74 -428
-34 -171 -91 -260 -168 -260 -33 0 -32 37 2 91 32 51 27 89 -11 89 -14 0 -25
5 -25 11 0 19 -80 3 -101 -20 -13 -14 -20 -39 -23 -79 -3 -49 0 -62 18 -79 44
-42 55 -43 350 -43 236 0 297 3 346 17 33 9 60 20 60 25 0 4 6 8 14 8 19 0 71
52 104 104 51 79 30 216 -32 216 -11 0 -27 6 -35 14 -9 7 -41 23 -71 34 -30
12 -50 21 -43 21 7 1 10 8 7 16 -4 9 0 15 9 15 23 0 129 55 159 83 58 54 86
146 64 212 -8 26 -152 94 -209 99 -23 2 -94 0 -157 -5z m184 -82 c36 -39 38
-45 33 -89 -6 -48 -19 -74 -69 -140 -32 -41 -71 -64 -127 -74 -20 -4 -43 -10
-52 -15 -18 -9 -45 12 -32 25 4 3 12 48 19 99 22 171 50 233 107 240 55 7 81
-3 121 -46z m-115 -368 c54 -17 101 -85 101 -148 0 -41 -7 -57 -49 -118 -30
-43 -60 -74 -78 -81 -64 -24 -98 -32 -134 -32 l-39 0 0 50 c0 27 4 69 10 92 5
24 16 81 25 128 24 128 19 120 77 120 28 0 67 -5 87 -11z"/>
<path fill="#33691f" d="M1535 1081 l6 -30 -68 -4 c-37 -2 -3 -3 77 -3 80 0 117 1 83 3 -41 3
-63 8 -63 16 0 7 -9 21 -21 30 -21 18 -21 18 -14 -12z"/>
<path fill="#33691f" d="M1816 1093 c-3 -4 -6 -22 -6 -42 0 -48 -9 -59 -50 -64 l-35 -4 39 -1
39 -2 -6 -75 c-4 -42 -11 -84 -17 -95 -7 -13 -7 -21 1 -25 6 -5 8 -22 4 -46
-6 -32 -4 -39 9 -39 9 0 16 1 16 3 0 1 7 81 14 177 8 96 17 182 21 191 6 16
-17 34 -29 22z"/>
<path fill="#33691f" d="M1899 1098 c-4 -18 -8 -75 -14 -192 -4 -77 -11 -149 -15 -161 -11
-30 5 -45 50 -45 42 0 60 14 60 47 0 28 -16 30 -30 3 -6 -12 -21 -20 -37 -20
-22 0 -24 3 -19 23 4 12 9 47 12 77 8 82 11 94 35 121 33 37 52 69 46 75 -3 3
-16 -10 -29 -30 -13 -20 -27 -36 -31 -36 -5 0 -7 30 -6 67 2 44 -2 68 -9 71
-7 2 -12 2 -13 0z"/>
<path fill="#33691f" d="M1446 957 c-9 -47 -7 -97 5 -97 17 0 40 28 29 35 -5 3 -10 19 -10 35
0 32 3 33 88 45 l43 5 -3 -42 c-3 -42 -3 -43 -44 -46 l-40 -3 -3 -76 c-1 -42
-6 -84 -11 -94 -14 -25 -13 -28 9 -22 19 5 31 55 31 135 0 44 20 59 52 39 29
-18 38 -5 38 59 l0 60 -89 -2 -89 -2 -6 -29z"/>
<path fill="#33691f" d="M1436 800 c-3 -22 -10 -40 -15 -40 -5 0 -11 -7 -14 -14 -10 -27 17
-7 41 29 25 39 28 65 8 65 -8 0 -16 -16 -20 -40z"/>
<path fill="#33691f" d="M1594 774 c8 -29 35 -56 48 -48 16 10 7 31 -23 53 l-32 24 7 -29z"/>
<path fill="#33691f" d="M1746 782 c-4 -7 -16 -12 -27 -12 -12 0 -19 -7 -19 -20 0 -11 4 -20
9 -20 18 0 54 37 49 50 -3 11 -6 11 -12 2z"/>
<path fill="#33691f" d="M1470 650 c0 -5 7 -10 15 -10 8 0 15 5 15 10 0 6 -7 10 -15 10 -8 0
-15 -4 -15 -10z"/>
<path fill="#33691f" d="M1540 650 c0 -5 11 -10 25 -10 26 0 26 0 6 -21 -14 -15 -26 -19 -41
-14 -20 6 -21 5 -11 -14 8 -14 8 -21 1 -21 -5 0 -10 -7 -10 -15 0 -8 4 -15 10
-15 6 0 5 -10 -2 -25 -11 -25 -32 -33 -42 -17 -3 5 2 21 10 37 12 23 12 30 2
37 -7 4 -16 8 -19 8 -9 0 -19 -63 -26 -175 -6 -92 -5 -99 10 -86 11 8 17 28
17 52 0 27 4 39 14 39 19 0 29 -31 20 -64 -5 -20 -2 -26 9 -26 11 0 17 12 19
42 2 31 8 44 21 46 14 3 17 -4 17 -35 0 -22 -5 -44 -12 -51 -8 -8 -9 -12 -1
-12 25 0 43 32 43 78 0 26 3 77 7 115 l6 67 -27 0 c-30 0 -36 27 -9 37 22 9
53 35 53 45 0 5 -20 8 -45 8 -25 0 -45 -4 -45 -10z m48 -114 c4 -20 -15 -46
-34 -46 -8 0 -14 10 -14 23 0 42 41 62 48 23z m-80 -83 c-4 -36 -38 -45 -38
-10 0 27 7 37 27 37 10 0 13 -9 11 -27z m69 7 c4 -22 -13 -44 -30 -37 -21 8
-10 59 12 55 9 -2 17 -10 18 -18z"/>
<path fill="#33691f" d="M1860 635 c0 -23 -4 -25 -43 -25 -24 0 -48 5 -54 11 -12 12 -17 6
-27 -33 -8 -34 17 -39 34 -8 9 18 21 20 100 20 81 0 89 -2 95 -21 8 -23 22
-15 27 16 3 18 -3 20 -52 20 -36 0 -55 4 -56 13 -1 6 -2 17 -3 22 -2 22 -21 9
-21 -15z"/>
<path fill="#33691f" d="M1392 610 c8 -24 13 -28 23 -20 11 9 11 15 -3 31 -24 28 -32 23 -20
-11z"/>
<path fill="#33691f" d="M1380 456 c0 -108 -7 -143 -31 -149 -11 -3 -19 -14 -19 -27 0 -20 2
-21 17 -9 51 40 51 41 59 157 6 100 5 112 -10 112 -14 0 -16 -13 -16 -84z"/>
<path fill="#33691f" d="M1755 520 c-4 -6 14 -10 44 -10 47 0 51 -2 51 -23 0 -35 -19 -47 -77
-47 -29 0 -53 -4 -53 -10 0 -5 24 -10 54 -10 61 0 63 -2 58 -81 -3 -29 -11
-55 -23 -68 -25 -27 -10 -27 24 -1 22 18 26 30 29 83 l3 62 63 3 c76 4 83 22
8 22 -57 0 -66 7 -58 47 4 20 10 23 48 23 24 0 44 4 44 9 0 13 -207 13 -215 1z"/>
<path fill="#33691f" d="M1403 277 c8 -26 197 -28 197 -2 0 10 -24 13 -100 13 -72 0 -100 -3
-97 -11z"/>
</g>
</svg>
